<?xml version="1.0" encoding="UTF-8"?>
<svg id="Layer_2" xmlns="http://www.w3.org/2000/svg" viewBox="0 0 453.73 414.96">
  <defs>
    <style>
      .cls-1 {
        fill: #fefefe;
      }
    </style>
  </defs>
  <g id="Layer_1-2" data-name="Layer_1">
    <path class="cls-1" d="M71.91,335.81c5.83,6.29,11.64,12.59,17.49,18.86,13.85,14.86,27.59,29.82,41.62,44.51,16.4,17.17,39.95,20.56,60.12,9.02,6.61-3.78,11.53-9.45,16.62-14.92,29.75-31.9,59.49-63.8,89.23-95.71,8.24-8.84,16.74-17.47,24.6-26.64,22.02-25.68,11.36-65.56-20.61-76.58-18.36-6.33-35.64-3.15-49.41,10.72-18.35,18.47-35.72,37.9-53.56,56.88-19.97,21.24-39.43,42.96-61.14,62.51-14.46,13.02-30.79,19.53-50.39,15.37-4.83-1.03-9.54-2.57-14.55-4.03Z"/>
    <path class="cls-1" d="M0,240.38c.4,12.9,5,23.69,13.41,32.81,15.46,16.77,31.05,33.42,46.6,50.1.92.99,1.76,2.08,3.14,2.57,11.39,4.09,22.77,8.04,35.17,7.68,11.7-.33,21.84-4.69,30.94-11.63,11.37-8.67,20.74-19.36,29.83-30.32,1.62-1.95,1.05-3.13-.43-4.71-20.28-21.65-40.47-43.38-60.78-65-6.56-6.98-12.55-14.54-20.13-20.52-22.54-17.8-57.18-10.71-71.11,14.39-4.35,7.84-6.26,16.18-6.64,24.62Z"/>
    <path class="cls-1" d="M192.45,79.16c5.83-6.29,11.64-12.59,17.49-18.86,13.85-14.86,27.59-29.82,41.62-44.51,16.4-17.17,39.95-20.56,60.12-9.02,6.61,3.78,11.53,9.45,16.62,14.92,29.75,31.9,59.49,63.8,89.23,95.71,8.24,8.84,16.74,17.47,24.6,26.64,22.02,25.68,11.36,65.56-20.61,76.58-18.36,6.33-35.64,3.15-49.41-10.72-18.35-18.47-35.72-37.9-53.56-56.88-19.97-21.24-39.43-42.96-61.14-62.51-14.46-13.02-30.79-19.53-50.39-15.37-4.83,1.03-9.54,2.57-14.55,4.03Z"/>
    <path class="cls-1" d="M120.54,174.58c.4-12.9,5-23.69,13.41-32.81,15.46-16.77,31.05-33.42,46.6-50.1.92-.99,1.76-2.08,3.14-2.57,11.39-4.09,22.77-8.04,35.17-7.68,11.7.33,21.84,4.69,30.94,11.63,11.37,8.67,20.74,19.36,29.83,30.32,1.62,1.95,1.05,3.13-.43,4.71-20.28,21.65-40.48,43.38-60.78,65-6.56,6.98-12.55,14.54-20.13,20.52-22.54,17.8-57.18,10.71-71.11-14.39-4.35-7.84-6.26-16.18-6.64-24.62Z"/>
  </g>
</svg>