<?xml version="1.0" encoding="UTF-8"?>
<svg id="Layer_2" xmlns="http://www.w3.org/2000/svg" viewBox="0 0 491.96 413.73">
  <defs>
    <style>
      .cls-1 {
        fill: #fefefe;
      }
    </style>
  </defs>
  <g id="Layer_1-2" data-name="Layer_1">
    <path class="cls-1" d="M79.16,341.82c-6.29-5.83-12.59-11.64-18.86-17.49-14.86-13.85-29.82-27.59-44.51-41.62-17.17-16.4-20.56-39.95-9.02-60.12,3.78-6.61,9.45-11.53,14.92-16.62,31.9-29.75,63.8-59.49,95.71-89.23,8.84-8.24,17.47-16.74,26.64-24.6,25.68-22.02,65.56-11.36,76.58,20.61,6.33,18.36,3.15,35.64-10.72,49.41-18.47,18.35-37.9,35.72-56.88,53.56-21.24,19.97-42.96,39.43-62.51,61.14-13.02,14.46-19.53,30.79-15.37,50.39,1.03,4.83,2.57,9.54,4.03,14.55Z"/>
    <path class="cls-1" d="M174.58,413.73c-12.9-.4-23.69-5-32.81-13.41-16.77-15.46-33.42-31.05-50.1-46.6-.99-.92-2.08-1.76-2.57-3.14-4.09-11.39-8.04-22.77-7.68-35.17.33-11.7,4.69-21.84,11.63-30.94,8.67-11.37,19.36-20.74,30.32-29.83,1.95-1.62,3.13-1.05,4.71.43,21.65,20.28,43.38,40.47,65,60.78,6.98,6.56,14.54,12.55,20.52,20.13,17.8,22.54,10.71,57.18-14.39,71.11-7.84,4.35-16.18,6.26-24.62,6.64Z"/>
    <path class="cls-1" d="M412.81,261.27c6.29-5.83,12.59-11.64,18.86-17.49,14.86-13.85,29.82-27.59,44.51-41.62,17.17-16.4,20.56-39.95,9.02-60.12-3.78-6.61-9.45-11.53-14.92-16.62-31.9-29.75-63.8-59.49-95.71-89.23-8.84-8.24-17.47-16.74-26.64-24.6-25.68-22.02-65.56-11.36-76.58,20.61-6.33,18.36-3.15,35.64,10.72,49.41,18.47,18.35,37.9,35.72,56.88,53.56,21.24,19.97,42.96,39.43,62.51,61.14,13.02,14.46,19.53,30.79,15.37,50.39-1.03,4.83-2.57,9.54-4.03,14.55Z"/>
    <path class="cls-1" d="M317.38,333.19c12.9-.4,23.69-5,32.81-13.41,16.77-15.46,33.42-31.05,50.1-46.6.99-.92,2.08-1.76,2.57-3.14,4.09-11.39,8.04-22.77,7.68-35.17-.33-11.7-4.69-21.84-11.63-30.94-8.67-11.37-19.36-20.74-30.32-29.83-1.95-1.62-3.13-1.05-4.71.43-21.65,20.28-43.38,40.47-65,60.78-6.98,6.56-14.54,12.55-20.52,20.13-17.8,22.54-10.71,57.18,14.39,71.11,7.84,4.35,16.18,6.26,24.62,6.64Z"/>
  </g>
</svg>